<?xml version="1.0" encoding="utf-8"?>
<!-- Generator: Adobe Illustrator 16.0.0, SVG Export Plug-In . SVG Version: 6.00 Build 0)  -->
<!DOCTYPE svg PUBLIC "-//W3C//DTD SVG 1.1//EN" "http://www.w3.org/Graphics/SVG/1.1/DTD/svg11.dtd">
<svg version="1.1" id="Layer_1" xmlns="http://www.w3.org/2000/svg" xmlns:xlink="http://www.w3.org/1999/xlink" x="0px" y="0px"
	 width="405.74px" height="212.5px" viewBox="0 0 405.74 212.5" enable-background="new 0 0 405.74 212.5" xml:space="preserve">
<rect x="-697.663" y="-144.778" fill="#EEC718" width="500.001" height="500.001"/>
<text transform="matrix(1 0 0 1 -636.1694 141.2666)" font-family="'Prime-Regular'" font-size="130.5008">Yemzo</text>
<text transform="matrix(1 0 0 1 -403.1377 174.4473)" font-family="'Prime-Regular'" font-size="36.5532">Logistics</text>
<g>
	<g>
		<path fill="#FFDA00" d="M396.032,8.698v194.409H9.5V8.698H396.032 M406.032-1.302H-0.5v214.409h406.532V-1.302L406.032-1.302z"/>
	</g>
</g>
<g>
	<text transform="matrix(1 0 0 1 20.4717 132.3682)" fill="#FFD900" font-family="'Prime-Regular'" font-size="125.5803">Yemzo</text>
	
		<text transform="matrix(1 0 0 1 261.0381 167.0342)" fill="#FFD900" font-family="'Prime-Regular'" font-size="35.175" letter-spacing="1">Freight</text>
</g>
<rect x="1902.87" y="-144.75" fill="#EEC718" width="500" height="500"/>
<g>
	<text transform="matrix(1 0 0 1 1964.3633 148.4219)" fill="#FFFFFF" font-family="'Prime-Regular'" font-size="130.5008">Yemzo</text>
	<rect x="1950" y="16.75" fill="none" stroke="#FFFFFF" stroke-width="10" stroke-miterlimit="10" width="405.74" height="177"/>
</g>
<rect x="1252.87" y="-143.75" fill="#EEC718" width="500" height="500"/>
<text transform="matrix(1 0 0 1 1313.3633 151.4229)" font-family="'Prime-Regular'" font-size="130.5008">Yemz</text>
<rect x="1633.027" y="91.425" fill="none" stroke="#231F20" stroke-width="10" stroke-miterlimit="10" width="61.702" height="54.498"/>
<rect x="602.838" y="-144.75" fill="#EEC31A" width="500" height="500"/>
<g>
	<text transform="matrix(1 0 0 1 747.6533 177.0791)" fill="#FFFFFF" font-family="'Komoda-Regular'" font-size="191.4246">Yemzo</text>
	
		<rect x="714.488" y="-6.099" fill="none" stroke="#FFFFFF" stroke-width="10" stroke-miterlimit="10" width="276.699" height="222.699"/>
</g>
<line fill="none" stroke="#231F20" stroke-width="10" stroke-miterlimit="10" x1="1418.896" y1="75.305" x2="1696.729" y2="75.305"/>
<line fill="none" stroke="#231F20" stroke-width="10" stroke-miterlimit="10" x1="1418.896" y1="161.805" x2="1696.729" y2="161.805"/>
<rect x="49.229" y="347.305" fill="#EDC519" width="398" height="32"/>
<rect x="49.229" y="518.305" fill="#EDC519" width="398" height="32"/>
<rect x="43.229" y="474.305" fill="#EDC519" width="398" height="8"/>
</svg>
